<mxfile host="app.diagrams.net" modified="2024-05-16T18:53:11.451Z" agent="Mozilla/5.0 (Windows NT 10.0; Win64; x64; rv:125.0) Gecko/20100101 Firefox/125.0" etag="GDk-DDYWNxU8yQCaDAqC" version="24.3.1" type="device" pages="2">
  <diagram name="Page-1" id="WkuAfLoHqbRwru2Q2_it">
    <mxGraphModel dx="2045" dy="645" grid="1" gridSize="10" guides="1" tooltips="1" connect="1" arrows="1" fold="1" page="1" pageScale="1" pageWidth="850" pageHeight="1100" math="0" shadow="0">
      <root>
        <mxCell id="0" />
        <mxCell id="1" parent="0" />
        <mxCell id="U-dGPpP1hNdbD0xGjyxH-16" value="roxy" style="rounded=0;whiteSpace=wrap;html=1;sketch=1;hachureGap=4;jiggle=2;curveFitting=1;fontFamily=Architects Daughter;fontSource=https%3A%2F%2Ffonts.googleapis.com%2Fcss%3Ffamily%3DArchitects%2BDaughter;labelPosition=center;verticalLabelPosition=top;align=center;verticalAlign=bottom;fontStyle=1;dashed=1;fillColor=default;" vertex="1" parent="1">
          <mxGeometry x="240" y="60" width="160" height="280" as="geometry" />
        </mxCell>
        <mxCell id="U-dGPpP1hNdbD0xGjyxH-66" value="" style="group" vertex="1" connectable="0" parent="1">
          <mxGeometry x="260" y="90" width="120" height="90" as="geometry" />
        </mxCell>
        <mxCell id="U-dGPpP1hNdbD0xGjyxH-43" value="autocert" style="rounded=0;whiteSpace=wrap;html=1;sketch=1;hachureGap=4;jiggle=2;curveFitting=1;fontFamily=Architects Daughter;fontSource=https%3A%2F%2Ffonts.googleapis.com%2Fcss%3Ffamily%3DArchitects%2BDaughter;fillColor=#fff2cc;strokeColor=#d6b656;" vertex="1" parent="U-dGPpP1hNdbD0xGjyxH-66">
          <mxGeometry width="120" height="30" as="geometry" />
        </mxCell>
        <mxCell id="U-dGPpP1hNdbD0xGjyxH-65" value="&lt;div&gt;https&lt;/div&gt;&lt;div&gt;reverse proxy&lt;/div&gt;" style="rounded=0;whiteSpace=wrap;html=1;sketch=1;hachureGap=4;jiggle=2;curveFitting=1;fontFamily=Architects Daughter;fontSource=https%3A%2F%2Ffonts.googleapis.com%2Fcss%3Ffamily%3DArchitects%2BDaughter;fillColor=#fff2cc;strokeColor=#d6b656;" vertex="1" parent="U-dGPpP1hNdbD0xGjyxH-66">
          <mxGeometry y="30" width="120" height="60" as="geometry" />
        </mxCell>
        <mxCell id="U-dGPpP1hNdbD0xGjyxH-73" value="" style="group" vertex="1" connectable="0" parent="1">
          <mxGeometry x="260" y="220" width="120" height="90" as="geometry" />
        </mxCell>
        <mxCell id="U-dGPpP1hNdbD0xGjyxH-71" value="http redirector" style="rounded=0;whiteSpace=wrap;html=1;sketch=1;hachureGap=4;jiggle=2;curveFitting=1;fontFamily=Architects Daughter;fontSource=https%3A%2F%2Ffonts.googleapis.com%2Fcss%3Ffamily%3DArchitects%2BDaughter;fillColor=#fff2cc;strokeColor=#d6b656;" vertex="1" parent="U-dGPpP1hNdbD0xGjyxH-73">
          <mxGeometry width="120" height="30" as="geometry" />
        </mxCell>
        <mxCell id="U-dGPpP1hNdbD0xGjyxH-72" value="&lt;div&gt;http&lt;/div&gt;&lt;div&gt;reverse proxy&lt;/div&gt;" style="rounded=0;whiteSpace=wrap;html=1;sketch=1;hachureGap=4;jiggle=2;curveFitting=1;fontFamily=Architects Daughter;fontSource=https%3A%2F%2Ffonts.googleapis.com%2Fcss%3Ffamily%3DArchitects%2BDaughter;fillColor=#fff2cc;strokeColor=#d6b656;" vertex="1" parent="U-dGPpP1hNdbD0xGjyxH-73">
          <mxGeometry y="30" width="120" height="60" as="geometry" />
        </mxCell>
        <mxCell id="U-dGPpP1hNdbD0xGjyxH-148" value="" style="group" vertex="1" connectable="0" parent="1">
          <mxGeometry x="120" y="140" width="120" height="90" as="geometry" />
        </mxCell>
        <mxCell id="U-dGPpP1hNdbD0xGjyxH-146" value="" style="shape=flexArrow;endArrow=classic;html=1;rounded=0;sketch=1;hachureGap=4;jiggle=2;curveFitting=1;fontFamily=Architects Daughter;fontSource=https%3A%2F%2Ffonts.googleapis.com%2Fcss%3Ffamily%3DArchitects%2BDaughter;" edge="1" parent="U-dGPpP1hNdbD0xGjyxH-148">
          <mxGeometry width="50" height="50" relative="1" as="geometry">
            <mxPoint y="30" as="sourcePoint" />
            <mxPoint x="120" y="60" as="targetPoint" />
          </mxGeometry>
        </mxCell>
        <mxCell id="U-dGPpP1hNdbD0xGjyxH-149" value="" style="group" vertex="1" connectable="0" parent="1">
          <mxGeometry x="400" y="160" width="120" height="90" as="geometry" />
        </mxCell>
        <mxCell id="U-dGPpP1hNdbD0xGjyxH-150" value="" style="shape=flexArrow;endArrow=classic;html=1;rounded=0;sketch=1;hachureGap=4;jiggle=2;curveFitting=1;fontFamily=Architects Daughter;fontSource=https%3A%2F%2Ffonts.googleapis.com%2Fcss%3Ffamily%3DArchitects%2BDaughter;" edge="1" parent="U-dGPpP1hNdbD0xGjyxH-149">
          <mxGeometry width="50" height="50" relative="1" as="geometry">
            <mxPoint as="sourcePoint" />
            <mxPoint x="120" y="30" as="targetPoint" />
          </mxGeometry>
        </mxCell>
        <mxCell id="U-dGPpP1hNdbD0xGjyxH-151" value="" style="shape=flexArrow;endArrow=classic;html=1;rounded=0;sketch=1;hachureGap=4;jiggle=2;curveFitting=1;fontFamily=Architects Daughter;fontSource=https%3A%2F%2Ffonts.googleapis.com%2Fcss%3Ffamily%3DArchitects%2BDaughter;" edge="1" parent="U-dGPpP1hNdbD0xGjyxH-149">
          <mxGeometry width="50" height="50" relative="1" as="geometry">
            <mxPoint y="30" as="sourcePoint" />
            <mxPoint x="120" y="60" as="targetPoint" />
          </mxGeometry>
        </mxCell>
        <mxCell id="U-dGPpP1hNdbD0xGjyxH-152" value="" style="shape=flexArrow;endArrow=classic;html=1;rounded=0;sketch=1;hachureGap=4;jiggle=2;curveFitting=1;fontFamily=Architects Daughter;fontSource=https%3A%2F%2Ffonts.googleapis.com%2Fcss%3Ffamily%3DArchitects%2BDaughter;" edge="1" parent="U-dGPpP1hNdbD0xGjyxH-149">
          <mxGeometry width="50" height="50" relative="1" as="geometry">
            <mxPoint y="60" as="sourcePoint" />
            <mxPoint x="120" y="90" as="targetPoint" />
          </mxGeometry>
        </mxCell>
        <mxCell id="U-dGPpP1hNdbD0xGjyxH-153" value="downstreams" style="text;html=1;align=center;verticalAlign=middle;resizable=0;points=[];autosize=1;strokeColor=none;fillColor=none;fontFamily=Architects Daughter;fontSource=https%3A%2F%2Ffonts.googleapis.com%2Fcss%3Ffamily%3DArchitects%2BDaughter;fontSize=18;" vertex="1" parent="1">
          <mxGeometry x="-10" y="150" width="130" height="40" as="geometry" />
        </mxCell>
        <mxCell id="U-dGPpP1hNdbD0xGjyxH-154" value="upstreams" style="text;html=1;align=center;verticalAlign=middle;resizable=0;points=[];autosize=1;strokeColor=none;fillColor=none;fontFamily=Architects Daughter;fontSource=https%3A%2F%2Ffonts.googleapis.com%2Fcss%3Ffamily%3DArchitects%2BDaughter;fontSize=18;" vertex="1" parent="1">
          <mxGeometry x="530" y="200" width="110" height="40" as="geometry" />
        </mxCell>
        <mxCell id="U-dGPpP1hNdbD0xGjyxH-162" value="Auto TLS cert management" style="rounded=1;whiteSpace=wrap;html=1;sketch=1;hachureGap=4;jiggle=2;curveFitting=1;fontFamily=Architects Daughter;fontSource=https%3A%2F%2Ffonts.googleapis.com%2Fcss%3Ffamily%3DArchitects%2BDaughter;fillColor=#d5e8d4;strokeColor=#82b366;fontSize=14;" vertex="1" parent="1">
          <mxGeometry x="450" y="50" width="230" height="50" as="geometry" />
        </mxCell>
        <mxCell id="U-dGPpP1hNdbD0xGjyxH-163" value="Redirect HTTP to HTTPS calls" style="rounded=1;whiteSpace=wrap;html=1;sketch=1;hachureGap=4;jiggle=2;curveFitting=1;fontFamily=Architects Daughter;fontSource=https%3A%2F%2Ffonts.googleapis.com%2Fcss%3Ffamily%3DArchitects%2BDaughter;fillColor=#dae8fc;strokeColor=#6c8ebf;fontSize=14;" vertex="1" parent="1">
          <mxGeometry x="-50" y="250" width="230" height="50" as="geometry" />
        </mxCell>
        <mxCell id="U-dGPpP1hNdbD0xGjyxH-164" value="Compatible with docker hostnames" style="rounded=1;whiteSpace=wrap;html=1;sketch=1;hachureGap=4;jiggle=2;curveFitting=1;fontFamily=Architects Daughter;fontSource=https%3A%2F%2Ffonts.googleapis.com%2Fcss%3Ffamily%3DArchitects%2BDaughter;fillColor=#e1d5e7;strokeColor=#9673a6;fontSize=14;" vertex="1" parent="1">
          <mxGeometry x="440" y="300" width="230" height="50" as="geometry" />
        </mxCell>
      </root>
    </mxGraphModel>
  </diagram>
  <diagram name="Copy of Page-1" id="wRs6VtIF5xcCQ_xzmM1-">
    <mxGraphModel dx="989" dy="534" grid="1" gridSize="10" guides="1" tooltips="1" connect="1" arrows="1" fold="1" page="1" pageScale="1" pageWidth="850" pageHeight="1100" math="0" shadow="0">
      <root>
        <mxCell id="XbF9UvEE8LvL_njVWVOL-0" />
        <mxCell id="XbF9UvEE8LvL_njVWVOL-1" parent="XbF9UvEE8LvL_njVWVOL-0" />
        <mxCell id="AZoxL7CyrMsMjAn4L6JY-35" value="" style="rounded=0;whiteSpace=wrap;html=1;sketch=1;hachureGap=4;jiggle=2;curveFitting=1;fontFamily=Architects Daughter;fontSource=https%3A%2F%2Ffonts.googleapis.com%2Fcss%3Ffamily%3DArchitects%2BDaughter;fillStyle=solid;" vertex="1" parent="XbF9UvEE8LvL_njVWVOL-1">
          <mxGeometry width="500" height="230" as="geometry" />
        </mxCell>
        <mxCell id="AZoxL7CyrMsMjAn4L6JY-29" style="rounded=0;sketch=1;hachureGap=4;jiggle=2;curveFitting=1;orthogonalLoop=1;jettySize=auto;html=1;fontFamily=Architects Daughter;fontSource=https%3A%2F%2Ffonts.googleapis.com%2Fcss%3Ffamily%3DArchitects%2BDaughter;" edge="1" parent="XbF9UvEE8LvL_njVWVOL-1" source="AZoxL7CyrMsMjAn4L6JY-22" target="AZoxL7CyrMsMjAn4L6JY-26">
          <mxGeometry relative="1" as="geometry" />
        </mxCell>
        <mxCell id="AZoxL7CyrMsMjAn4L6JY-30" style="rounded=0;sketch=1;hachureGap=4;jiggle=2;curveFitting=1;orthogonalLoop=1;jettySize=auto;html=1;exitX=1;exitY=0.5;exitDx=0;exitDy=0;exitPerimeter=0;fontFamily=Architects Daughter;fontSource=https%3A%2F%2Ffonts.googleapis.com%2Fcss%3Ffamily%3DArchitects%2BDaughter;" edge="1" parent="XbF9UvEE8LvL_njVWVOL-1" source="AZoxL7CyrMsMjAn4L6JY-22" target="AZoxL7CyrMsMjAn4L6JY-27">
          <mxGeometry relative="1" as="geometry" />
        </mxCell>
        <mxCell id="AZoxL7CyrMsMjAn4L6JY-31" style="rounded=0;sketch=1;hachureGap=4;jiggle=2;curveFitting=1;orthogonalLoop=1;jettySize=auto;html=1;exitX=1;exitY=0.5;exitDx=0;exitDy=0;exitPerimeter=0;fontFamily=Architects Daughter;fontSource=https%3A%2F%2Ffonts.googleapis.com%2Fcss%3Ffamily%3DArchitects%2BDaughter;" edge="1" parent="XbF9UvEE8LvL_njVWVOL-1" source="AZoxL7CyrMsMjAn4L6JY-22" target="AZoxL7CyrMsMjAn4L6JY-28">
          <mxGeometry relative="1" as="geometry" />
        </mxCell>
        <mxCell id="AZoxL7CyrMsMjAn4L6JY-22" value="roxy" style="verticalAlign=top;verticalLabelPosition=bottom;labelPosition=center;align=center;html=1;outlineConnect=0;fillColor=#f8cecc;strokeColor=#b85450;gradientDirection=north;strokeWidth=2;shape=mxgraph.networks.load_balancer;sketch=1;hachureGap=4;jiggle=2;curveFitting=1;fontFamily=Architects Daughter;fontSource=https%3A%2F%2Ffonts.googleapis.com%2Fcss%3Ffamily%3DArchitects%2BDaughter;fontStyle=1" vertex="1" parent="XbF9UvEE8LvL_njVWVOL-1">
          <mxGeometry x="185" y="60" width="100" height="30" as="geometry" />
        </mxCell>
        <mxCell id="AZoxL7CyrMsMjAn4L6JY-23" value="public internet" style="html=1;outlineConnect=0;fillColor=#dae8fc;strokeColor=#6c8ebf;gradientDirection=north;strokeWidth=2;shape=mxgraph.networks.cloud;sketch=1;hachureGap=4;jiggle=2;curveFitting=1;fontFamily=Architects Daughter;fontSource=https%3A%2F%2Ffonts.googleapis.com%2Fcss%3Ffamily%3DArchitects%2BDaughter;labelPosition=center;verticalLabelPosition=bottom;align=center;verticalAlign=top;fontStyle=1" vertex="1" parent="XbF9UvEE8LvL_njVWVOL-1">
          <mxGeometry x="10" y="50" width="90" height="50" as="geometry" />
        </mxCell>
        <mxCell id="AZoxL7CyrMsMjAn4L6JY-24" style="edgeStyle=orthogonalEdgeStyle;rounded=0;sketch=1;hachureGap=4;jiggle=2;curveFitting=1;orthogonalLoop=1;jettySize=auto;html=1;entryX=0;entryY=0.5;entryDx=0;entryDy=0;entryPerimeter=0;fontFamily=Architects Daughter;fontSource=https%3A%2F%2Ffonts.googleapis.com%2Fcss%3Ffamily%3DArchitects%2BDaughter;" edge="1" parent="XbF9UvEE8LvL_njVWVOL-1" source="AZoxL7CyrMsMjAn4L6JY-23" target="AZoxL7CyrMsMjAn4L6JY-22">
          <mxGeometry relative="1" as="geometry" />
        </mxCell>
        <mxCell id="AZoxL7CyrMsMjAn4L6JY-26" value="" style="verticalLabelPosition=bottom;html=1;verticalAlign=top;strokeWidth=1;align=center;outlineConnect=0;dashed=0;outlineConnect=0;shape=mxgraph.aws3d.dataServer;strokeColor=#d79b00;aspect=fixed;sketch=1;hachureGap=4;jiggle=2;curveFitting=1;fontFamily=Architects Daughter;fontSource=https%3A%2F%2Ffonts.googleapis.com%2Fcss%3Ffamily%3DArchitects%2BDaughter;fillColor=#ffe6cc;" vertex="1" parent="XbF9UvEE8LvL_njVWVOL-1">
          <mxGeometry x="370" y="6" width="62.66" height="54" as="geometry" />
        </mxCell>
        <mxCell id="AZoxL7CyrMsMjAn4L6JY-27" value="" style="verticalLabelPosition=bottom;html=1;verticalAlign=top;strokeWidth=1;align=center;outlineConnect=0;dashed=0;outlineConnect=0;shape=mxgraph.aws3d.dataServer;strokeColor=#d79b00;aspect=fixed;sketch=1;hachureGap=4;jiggle=2;curveFitting=1;fontFamily=Architects Daughter;fontSource=https%3A%2F%2Ffonts.googleapis.com%2Fcss%3Ffamily%3DArchitects%2BDaughter;fillColor=#ffe6cc;" vertex="1" parent="XbF9UvEE8LvL_njVWVOL-1">
          <mxGeometry x="430" y="60" width="62.66" height="54" as="geometry" />
        </mxCell>
        <mxCell id="AZoxL7CyrMsMjAn4L6JY-28" value="" style="verticalLabelPosition=bottom;html=1;verticalAlign=top;strokeWidth=1;align=center;outlineConnect=0;dashed=0;outlineConnect=0;shape=mxgraph.aws3d.dataServer;strokeColor=#d79b00;aspect=fixed;sketch=1;hachureGap=4;jiggle=2;curveFitting=1;fontFamily=Architects Daughter;fontSource=https%3A%2F%2Ffonts.googleapis.com%2Fcss%3Ffamily%3DArchitects%2BDaughter;fillColor=#ffe6cc;" vertex="1" parent="XbF9UvEE8LvL_njVWVOL-1">
          <mxGeometry x="360" y="100" width="62.66" height="54" as="geometry" />
        </mxCell>
        <mxCell id="AZoxL7CyrMsMjAn4L6JY-32" value="applications" style="text;html=1;align=center;verticalAlign=middle;resizable=0;points=[];autosize=1;strokeColor=none;fillColor=none;fontFamily=Architects Daughter;fontSource=https%3A%2F%2Ffonts.googleapis.com%2Fcss%3Ffamily%3DArchitects%2BDaughter;fontStyle=1" vertex="1" parent="XbF9UvEE8LvL_njVWVOL-1">
          <mxGeometry x="356.3299999999999" y="160" width="90" height="30" as="geometry" />
        </mxCell>
        <mxCell id="AZoxL7CyrMsMjAn4L6JY-33" value="&lt;div align=&quot;left&quot;&gt;&lt;b&gt;Features:&lt;/b&gt;&lt;br&gt;&lt;/div&gt;&lt;div align=&quot;left&quot;&gt;☑ Automatic certificate mgmt&lt;/div&gt;&lt;div align=&quot;left&quot;&gt;☑ Http to Https redirection&lt;/div&gt;&lt;div align=&quot;left&quot;&gt;☑ Single-binary install&lt;/div&gt;&lt;div align=&quot;left&quot;&gt;☑ Minimal configuration&lt;br&gt;&lt;/div&gt;" style="text;html=1;align=left;verticalAlign=middle;resizable=0;points=[];autosize=1;strokeColor=#82b366;fillColor=#EAFFE9;fontFamily=Architects Daughter;fontSource=https%3A%2F%2Ffonts.googleapis.com%2Fcss%3Ffamily%3DArchitects%2BDaughter;" vertex="1" parent="XbF9UvEE8LvL_njVWVOL-1">
          <mxGeometry x="50" y="130" width="190" height="90" as="geometry" />
        </mxCell>
      </root>
    </mxGraphModel>
  </diagram>
</mxfile>
